<svg width="17" height="17" viewBox="0 0 17 17" fill="none" xmlns="http://www.w3.org/2000/svg">
<path fill-rule="evenodd" clip-rule="evenodd" d="M12.518 10.5C12.116 11.048 11.619 12.12 11.039 13.093C10.402 14.167 9.672 11.494 8.873 11.494C8.052 11.494 7.285 14.118 6.621 13.018C6.049 12.071 5.555 11.051 5.165 10.527C1.122 10.527 1 16.414 1 16.414H16.745C16.745 16.415 17.063 10.5 12.518 10.5Z" fill="white"/>
<path fill-rule="evenodd" clip-rule="evenodd" d="M11.895 4.872C11.895 6.733 10.577 10.294 8.947 10.294C7.319 10.294 6 6.733 6 4.872C6 3.009 7.319 1.5 8.947 1.5C10.577 1.499 11.895 3.008 11.895 4.872Z" fill="white"/>
</svg>
