<svg width="439" height="439" viewBox="0 0 439 439" fill="none" xmlns="http://www.w3.org/2000/svg">
<path d="M409.132 112.127C389.524 77.7481 362.927 50.5301 329.334 30.467C295.736 10.403 259.057 0.373505 219.271 0.373505C179.49 0.373505 142.799 10.4061 109.208 30.467C75.612 50.529 49.016 77.7481 29.408 112.127C9.803 146.505 0 184.047 0 224.75C0 273.643 13.94 317.61 41.827 356.661C69.711 395.714 105.733 422.738 149.89 437.734C155.03 438.711 158.835 438.024 161.309 435.692C163.784 433.357 165.02 430.432 165.02 426.93C165.02 426.346 164.971 421.089 164.876 411.154C164.778 401.219 164.732 392.551 164.732 385.156L158.165 386.318C153.978 387.103 148.696 387.436 142.319 387.341C135.945 387.25 129.328 386.567 122.477 385.296C115.623 384.036 109.248 381.115 103.347 376.537C97.449 371.96 93.262 365.969 90.787 358.572L87.932 351.849C86.029 347.373 83.033 342.401 78.94 336.951C74.847 331.495 70.708 327.797 66.521 325.85L64.522 324.385C63.19 323.412 61.954 322.238 60.811 320.876C59.669 319.514 58.814 318.151 58.243 316.786C57.671 315.42 58.145 314.3 59.67 313.421C61.195 312.542 63.951 312.115 67.95 312.115L73.658 312.988C77.465 313.769 82.174 316.101 87.791 319.998C93.405 323.893 98.02 328.956 101.637 335.186C106.017 343.174 111.294 349.261 117.483 353.449C123.667 357.638 129.902 359.728 136.182 359.728C142.462 359.728 147.886 359.241 152.456 358.272C157.021 357.298 161.304 355.834 165.303 353.887C167.016 340.832 171.68 330.803 179.291 323.792C168.443 322.625 158.69 320.868 150.027 318.532C141.369 316.193 132.422 312.396 123.192 307.132C113.957 301.876 106.296 295.348 100.207 287.561C94.117 279.769 89.119 269.54 85.22 256.883C81.319 244.22 79.368 229.613 79.368 213.058C79.368 189.486 86.888 169.427 101.925 152.87C94.881 135.149 95.546 115.282 103.922 93.2727C109.442 91.5177 117.628 92.8347 128.476 97.2155C139.326 101.598 147.27 105.353 152.316 108.466C157.362 111.578 161.405 114.215 164.451 116.353C182.156 111.291 200.427 108.759 219.269 108.759C238.111 108.759 256.386 111.291 274.092 116.353L284.941 109.345C292.36 104.668 301.121 100.383 311.203 96.4869C321.291 92.5932 329.005 91.5208 334.337 93.2758C342.899 115.286 343.662 135.152 336.616 152.873C351.652 169.431 359.175 189.495 359.175 213.061C359.175 229.617 357.217 244.269 353.322 257.029C349.422 269.791 344.381 280.01 338.197 287.707C332.006 295.403 324.296 301.88 315.066 307.135C305.834 312.395 296.884 316.192 288.226 318.531C279.564 320.87 269.811 322.628 258.963 323.797C268.857 332.559 273.805 346.389 273.805 365.281V426.922C273.805 430.424 274.995 433.347 277.377 435.684C279.756 438.016 283.513 438.702 288.653 437.725C332.816 422.731 368.838 395.706 396.721 356.652C424.601 317.602 438.546 273.635 438.546 224.742C438.536 184.043 428.728 146.505 409.132 112.127Z" fill="#656565"/>
</svg>
